<?xml version="1.0" encoding="utf-8"?>
<!-- Generator: Adobe Illustrator 17.1.0, SVG Export Plug-In . SVG Version: 6.00 Build 0)  -->
<!DOCTYPE svg PUBLIC "-//W3C//DTD SVG 1.1//EN" "http://www.w3.org/Graphics/SVG/1.1/DTD/svg11.dtd">
<svg version="1.1" id="Layer_1" xmlns="http://www.w3.org/2000/svg" xmlns:xlink="http://www.w3.org/1999/xlink" x="0px" y="0px"
	 viewBox="0 0 410 410" enable-background="new 0 0 410 410" xml:space="preserve">
<circle fill="#52B36E" cx="205" cy="205" r="205"/>
<g>
	<path fill="#FFFFFF" d="M335.8,134.3l-29.8-29.4c-3.5-3.5-9.2-3.5-12.8,0L169.4,227.4l-52.7-52.1c-3.5-3.5-9.2-3.5-12.8,0
		l-29.8,29.4c-3.5,3.5-3.5,9.1,0,12.6l88.9,87.8c1.8,1.7,4.1,2.6,6.4,2.6c2.3,0,4.6-0.9,6.4-2.6l160.1-158.2
		c1.7-1.7,2.6-3.9,2.6-6.3C338.5,138.3,337.5,136,335.8,134.3z"/>
</g>
</svg>
