<?xml version="1.0" encoding="utf-8"?>
<!-- Generator: Adobe Illustrator 17.1.0, SVG Export Plug-In . SVG Version: 6.00 Build 0)  -->
<!DOCTYPE svg PUBLIC "-//W3C//DTD SVG 1.1//EN" "http://www.w3.org/Graphics/SVG/1.1/DTD/svg11.dtd">
<svg version="1.1" id="Layer_1" xmlns="http://www.w3.org/2000/svg" xmlns:xlink="http://www.w3.org/1999/xlink" x="0px" y="0px"
	 viewBox="0 0 410 410" enable-background="new 0 0 410 410" xml:space="preserve">
<circle fill="#E84C3C" cx="205" cy="205" r="205"/>
<path fill="#FFFFFF" d="M296.7,71.8c-2.2-2.2-5.7-2.2-7.8,0l-80.1,80.1c-2.2,2.2-5.7,2.2-7.8,0l-80.1-80.1c-2.2-2.2-5.7-2.2-7.8,0
	L71.8,113c-2.2,2.2-2.2,5.7,0,7.8l80.1,80.1c2.2,2.2,2.2,5.7,0,7.8l-80.1,80.1c-2.2,2.2-2.2,5.7,0,7.8l41.2,41.2
	c2.2,2.2,5.7,2.2,7.8,0l80.1-80.1c2.2-2.2,5.7-2.2,7.8,0l80.1,80.1c2.2,2.2,5.7,2.2,7.8,0l41.2-41.2c2.2-2.2,2.2-5.7,0-7.8
	l-80.1-80.1c-2.2-2.2-2.2-5.7,0-7.8l80.1-80.1c2.2-2.2,2.2-5.7,0-7.8L296.7,71.8z"/>
</svg>
