<?xml version="1.0" encoding="utf-8"?>
<!-- Generator: Adobe Illustrator 17.1.0, SVG Export Plug-In . SVG Version: 6.00 Build 0)  -->
<!DOCTYPE svg PUBLIC "-//W3C//DTD SVG 1.1//EN" "http://www.w3.org/Graphics/SVG/1.1/DTD/svg11.dtd">
<svg version="1.1" id="Layer_1" xmlns="http://www.w3.org/2000/svg" xmlns:xlink="http://www.w3.org/1999/xlink" x="0px" y="0px"
	 viewBox="777.9 1101.5 127.9 182.7" enable-background="new 777.9 1101.5 127.9 182.7" xml:space="preserve">
<g>
	<g>
		<path fill="#CCCCCC" d="M833.9,1284.2c-1.1,0-2.2,0-3.4-0.1c-16.8-1.1-29.2-9.7-34.1-23.7c-2.2-3.7-18.2-32.5-7.4-47.1
			c3.5-4.8,9-7.2,16.4-7.2c3,0,6.4,0.4,10.1,1.3c7.1,1.6,9.2,9.5,11.4,17.9c0.6,2.1,2.2,8.3,3.5,10.4c3.4,0,4.9-0.9,5.2-1.3
			c0,0,1.8-3.7-6.6-16.1c-2-3-1.5-7,1.3-9.4c5.2-4.5,15.6-16.5,12.2-23.4c-0.6-1.3-4-4.3-7.8-4.3h-0.1c-4.9,0.1-8.6,5.7-10.8,10.5
			c-1.2,2.5-3.7,4.1-6.5,4.1c-2.8,0-5.3-1.6-6.5-4.2c-0.1-0.2-12-25.9-3.5-45.2c3.7-8.3,10.4-14.1,19.9-17.2
			c2.5-0.8,7.5-1.7,13.4-1.7c8,0,19.3,1.7,28.1,9.8c10.8,10,13.7,26.2,8.5,47.9c-0.8,3.2-3.6,5.5-6.9,5.5c-0.6,0-1.1-0.1-1.7-0.2
			c-3.8-0.9-6.1-4.8-5.2-8.6c3.9-16.4,2.5-27.9-4.3-34.2c-5.6-5.2-14.1-6-18.7-6c-3.8,0-7.2,0.5-8.8,1.1c-5.6,1.8-9.2,4.8-11.2,9.3
			c-2.7,6.2-2,14.3-0.6,20.8c5.2-4.7,10.6-5.9,14.7-6h0.3c9.5,0,17.7,6.3,20.6,12.2c6.9,14-4.2,28.7-11.3,36.2
			c6.4,11.1,7.7,19.7,3.8,26.2c-4.4,7.4-13.5,8.2-17.2,8.2c-0.6,0-1.1,0-1.4,0c-0.2,0-0.4,0-0.6,0c-9.9,0-13.1-12.1-15.5-21
			c-0.4-1.6-1.6-6-2.4-8c-2-0.4-3.8-0.6-5.3-0.6c-2.5,0-4.3,0.5-5,1.4c-2.9,3.9,1.3,19.3,8.8,32.4l0.2,0.3l0.1,0.4
			c1.8,5.2,7,14,22,15c0.8,0.1,1.7,0.1,2.5,0.1c10.3,0,20.6-4.4,23.4-10c6.2-12.5,8.4-21.1,10.2-28.7l0-0.2c1.7-7,3.5-14.2,8.2-22.8
			c15.4-28.2,19.5-52,11.7-68.8c-6-12.9-17.8-19.5-26.8-21.4c-7.6-1.6-14.7-2.4-21.1-2.4c-13.8,0-24.8,3.7-32.5,11
			c-19.7,18.6-14.4,55.7-14.3,56c0.3,1.9-0.2,3.8-1.3,5.3c-1.1,1.5-2.8,2.5-4.7,2.8c-0.3,0.1-0.7,0.1-1.1,0.1c-3.5,0-6.5-2.6-7-6
			c-0.3-1.8-6.6-44.6,18.6-68.5c10.5-9.9,24.7-15,42.3-15c7.4,0,15.5,0.9,24,2.7c12.4,2.6,28.7,11.6,36.9,29.3
			c9.9,21.4,5.8,48.8-12.2,81.6c-3.8,6.9-5.2,12.7-6.8,19.4c-2.1,8.4-4.4,17.9-11.4,31.9c-5.3,10.7-19.8,17.8-36,17.8L833.9,1284.2z
			"/>
	</g>
</g>
</svg>
