<?xml version="1.0" encoding="utf-8"?>
<!-- Generator: Adobe Illustrator 17.0.0, SVG Export Plug-In . SVG Version: 6.00 Build 0)  -->
<!DOCTYPE svg PUBLIC "-//W3C//DTD SVG 1.1//EN" "http://www.w3.org/Graphics/SVG/1.1/DTD/svg11.dtd">
<svg version="1.1" id="Laag_1" xmlns="http://www.w3.org/2000/svg" xmlns:xlink="http://www.w3.org/1999/xlink" x="0px" y="0px"
	 width="172.745px" height="198.337px" viewBox="0 0 172.745 198.337" enable-background="new 0 0 172.745 198.337"
	 xml:space="preserve">
<circle fill="#2980B9" cx="86.372" cy="99.169" r="84.5"/>
<g id="ZncvJy.tif">
	<g>
		<path fill="#FFFFFF" stroke="#FFFFFF" stroke-miterlimit="10" d="M20.28,99.331c1.015-2.261,2.553-3.993,4.875-4.999
			c3.726-1.615,7.591-0.797,10.231,2.29c4.782,5.593,9.628,11.136,14.268,16.845c3.573,4.396,6.865,9.021,10.297,13.533
			c1.714,2.254,3.461,4.482,5.238,6.781c0.273-0.512,0.619-1.099,0.909-1.712c3.695-7.805,8.258-15.091,13.311-22.073
			c5.011-6.924,10.416-13.543,16.247-19.787c6.413-6.867,12.945-13.624,19.502-20.355c5.535-5.682,11.188-11.249,16.769-16.886
			c1.383-1.397,2.821-2.661,4.788-3.169c4.7-1.213,10.541,2.242,10.752,7.43c0.057,1.403-0.366,2.691-1.256,3.726
			c-1.473,1.712-3.033,3.353-4.618,4.962c-4.002,4.061-8.048,8.08-12.059,12.132c-5.2,5.252-10.44,10.466-15.559,15.796
			c-6.58,6.85-12.838,13.987-18.587,21.56c-4.708,6.203-9.022,12.662-12.687,19.539c-3.109,5.834-5.846,11.833-7.72,18.191
			c-0.888,3.012-2.731,4.975-5.898,5.376c-3.383,0.428-6.331-0.475-8.44-3.345c-6.196-8.428-12.319-16.91-18.592-25.28
			c-5.525-7.371-11.283-14.563-17.506-21.368c-0.838-0.916-1.643-1.864-2.484-2.777c-1.137-1.234-1.688-2.741-2.086-4.326
			C20.077,100.721,20.178,100.026,20.28,99.331z"/>
	</g>
</g>
</svg>
