<?xml version="1.0" encoding="utf-8"?>
<!-- Generator: Adobe Illustrator 17.1.0, SVG Export Plug-In . SVG Version: 6.00 Build 0)  -->
<!DOCTYPE svg PUBLIC "-//W3C//DTD SVG 1.1//EN" "http://www.w3.org/Graphics/SVG/1.1/DTD/svg11.dtd">
<svg version="1.1" id="Layer_1" xmlns="http://www.w3.org/2000/svg" xmlns:xlink="http://www.w3.org/1999/xlink" x="0px" y="0px"
	 viewBox="105.9 456 1472 1472" enable-background="new 105.9 456 1472 1472" xml:space="preserve">
<g id="Layer_3">
	<circle fill="#2880BA" cx="841.9" cy="1192" r="736"/>
</g>
<g id="Big_Mortarboard">
	<g>
		<g>
			<path fill="#FFFFFF" d="M395.3,1316.4v109.7l0,0c0.5,19.9,19.8,35.9,43.5,35.9c23.8,0,43.1-16,43.5-35.9l0,0v-109.7
				c-0.4-20-19.7-36.1-43.6-36.1C415,1280.3,395.6,1296.4,395.3,1316.4z"/>
			<path fill="#FFFFFF" d="M438.8,1240.6c6.8,0,13.4,0.8,19.9,2.2v-65.5l-39.7-23.5v89C425.4,1241.4,432.1,1240.6,438.8,1240.6z"/>
		</g>
		<path fill="#FFFFFF" d="M868.5,1388.4l-0.8,0.4c-7.9,4.2-16.8,6.4-25.8,6.4c-8.9,0-17.9-2.2-25.8-6.4l-0.8-0.4l-0.8-0.5
			l-272.6-161.4v229.1c48.4,102.2,164.5,174.2,300.1,174.2s251.7-72,300.1-174.2v-229.1l-272.7,161.4L868.5,1388.4z"/>
		<path fill="#FFFFFF" d="M1316.9,1033.6L849.1,755.9c-2.2-1.1-4.6-1.8-7.2-1.8c-2.6,0-5.1,0.7-7.2,1.8l-467.8,277.7
			c-6.9,4.7-11.5,12.6-11.5,21.6c0,9,4.6,16.9,11.5,21.6l467.8,276.9c2.1,1.1,4.6,1.8,7.2,1.8s5-0.6,7.2-1.8l467.8-276.9
			c6.9-4.7,11.5-12.6,11.5-21.6C1328.4,1046.2,1323.8,1038.3,1316.9,1033.6z"/>
	</g>
</g>
<path fill="#2880BA" d="M833.4,1101.4c-35.1-21.9-69.9-13.1-81.4,10.2c-11.5,23.3,0.4,61.2,35.5,83.1c25.2,15.7,50.4,15.6,66.7,5.6
	l184.2-113.9l63.1-37.6l21-12.5l-223-133.9l-84.1,50.2L675,1036.3c-2.3-18.1-14.2-38.1-35.7-51.4c-31.9-19.9-63.6-11.9-74,9.3
	s0.4,55.7,32.2,75.6c23,14.3,45.8,14.2,60.7,5.1l182-108.2l176.3,106.5l-143.9,84.9C870,1138,856.9,1116.1,833.4,1101.4z"/>
</svg>
